<?xml version="1.0"?>
<svg width="49.99999999999999" height="49.99999999999999" xmlns="http://www.w3.org/2000/svg" xmlns:svg="http://www.w3.org/2000/svg">

 <g class="layer">
  <title>Layer 1</title>
  <g id="svg_1">
   <path d="m25,4c10.5,0 16,2.97 16,4l0,17c0,4.41 -4.92,17.07 -16,19.94c-11.07,-2.87 -16,-15.53 -16,-19.94l0,-17c0,-1.03 5.5,-4 16,-4m0,-2c-9.94,0 -18,2.69 -18,6c0,0 0,8.08 0,17c0,5.08 5.42,19.08 18,22c12.58,-2.92 18,-16.92 18,-22c0,-8.92 0,-17 0,-17c0,-3.31 -8.06,-6 -18,-6l0,0z" fill="#ffffff" id="svg_2"/>
  </g>
  <path d="m39,15c-1.85,-3.12 -4,-4 -6,-4c-3.44,0 -5.2,3.07 -5.56,3.44c-0.59,0.59 -0.59,1.53 0,2.12c0.58,0.59 1.54,0.59 2.12,0c0.41,-0.41 1.75,-3.56 4.44,-3.56c1.39,0 3.05,0.64 5,2z" fill="#ffffff" id="svg_3" transform="matrix(1, 0, 0, 1, 0, 0)"/>
  <path d="m11,15.08c1.86,-3.12 4,-4 6,-4c3.44,0 5.2,3.07 5.56,3.44c0.59,0.59 0.59,1.53 0,2.12c-0.58,0.59 -1.54,0.59 -2.12,0c-0.41,-0.41 -1.75,-3.56 -4.44,-3.56c-1.39,0 -3.05,0.64 -5,2z" fill="#ffffff" id="svg_4" transform="matrix(1, 0, 0, 1, 0, 0)"/>
  <g id="svg_5" transform="matrix(1, 0, 0, 1, 0, 0)">
   <polygon fill="#ffffff" id="svg_6" points="33,31 29,31 26,28 24,28 21,31 17,31 11,26 16,34 23,34 25,32 27,34 34,34 39,26 "/>
  </g>
  <g id="svg_7" transform="matrix(1, 0, 0, 1, 0, 0)">
   <polygon fill="#ffffff" id="svg_8" points="23,38 27,38 27,45.2 25,47 25,47 23,45.2 "/>
  </g>
  <path d="m34,17c-1.64,0 -3.08,0.59 -4,1.5c0.92,0.91 2.36,1.5 4,1.5s3.08,-0.59 4,-1.5c-0.92,-0.91 -2.36,-1.5 -4,-1.5z" fill="#ffffff" id="svg_9" transform="matrix(1, 0, 0, 1, 0, 0)"/>
  <path d="m16,17c-1.64,0 -3.08,0.59 -4,1.5c0.92,0.91 2.36,1.5 4,1.5s3.08,-0.59 4,-1.5c-0.92,-0.91 -2.36,-1.5 -4,-1.5z" fill="#ffffff" id="svg_10" transform="matrix(1, 0, 0, 1, 0, 0)"/>
 </g>
</svg>